<svg width="90" height="22" viewBox="0 0 90 22" fill="none" xmlns="http://www.w3.org/2000/svg">
<path d="M57.0054 8.98961C57.444 9.84521 57.8753 10.6891 58.3118 11.5303C58.6362 12.1557 58.9703 12.7763 59.2951 13.4016C59.5065 13.8086 59.7154 14.2172 59.9117 14.6316C59.9647 14.7434 59.9886 14.879 59.989 15.0038C59.9938 17.1332 59.9923 19.2627 59.9923 21.3921C59.9923 21.6756 59.9739 21.6933 59.6885 21.6933C58.283 21.6934 56.8779 21.6934 55.4725 21.6933C55.2044 21.6933 55.176 21.6658 55.1757 21.3991C55.1757 19.4231 55.1565 17.4467 55.1904 15.4713C55.1981 15.0207 55.039 14.6683 54.8538 14.3005C54.5875 13.771 54.3138 13.2451 54.0442 12.7172C53.7547 12.1506 53.4653 11.5841 53.1783 11.0163C52.8277 10.3228 52.4819 9.62681 52.1298 8.93399C51.7858 8.25775 51.4348 7.58538 51.0908 6.90921C50.7523 6.24324 50.4212 5.57341 50.0827 4.90741C49.5947 3.94783 49.1023 2.99057 48.6136 2.03147C48.3337 1.48167 48.0578 0.92958 47.7775 0.379997C47.7135 0.254995 47.7466 0.194299 47.8836 0.185607C47.9263 0.182918 47.9694 0.183876 48.0121 0.183876C49.4054 0.183728 50.7984 0.186233 52.1913 0.180671C52.3865 0.179898 52.4959 0.240741 52.5898 0.424488C53.2465 1.7116 53.9205 2.9898 54.5838 4.27367C54.9061 4.89801 55.2125 5.53072 55.534 6.15555C55.938 6.94018 56.3502 7.72047 56.7583 8.50293C56.8404 8.66016 56.9196 8.81879 57.0054 8.98961Z" fill="#233650"/>
<path d="M29.1044 15.2373C28.8871 14.6366 28.6731 14.05 28.4598 13.4631C28.2363 12.8474 28.0142 12.231 27.7895 11.6158C27.6359 11.1959 27.4787 10.7774 27.3236 10.3582C27.1063 9.7727 26.8878 9.1878 26.673 8.60146C26.4288 7.93475 26.1882 7.26669 25.9457 6.5994C25.5189 5.42554 25.0945 4.25083 24.6641 3.07834C24.3476 2.21603 24.024 1.35634 23.7016 0.496201C23.605 0.238426 23.6413 0.182885 23.9212 0.182812C25.2838 0.182554 26.6464 0.182591 28.009 0.182702C28.2635 0.182738 28.3048 0.222625 28.391 0.462944C28.6665 1.22924 28.9493 1.99291 29.2281 2.75803C29.4506 3.36783 29.6694 3.97881 29.8925 4.58835C30.1555 5.30724 30.4225 6.02473 30.6859 6.74351C30.9617 7.49673 31.235 8.25098 31.5105 9.00431C31.7377 9.62538 31.969 10.245 32.1948 10.8666C32.4143 11.471 32.6276 12.0777 32.8471 12.6821C33.0014 13.1083 33.1616 13.5323 33.3185 13.9575C33.5391 14.555 33.7601 15.1523 33.9789 15.7503C34.2632 16.5268 34.5457 17.3038 34.8285 18.0808C35.0967 18.8174 35.363 19.5545 35.6322 20.2906C35.7714 20.6704 35.9128 21.0492 36.0572 21.4269C36.1463 21.6597 36.1283 21.6927 35.8764 21.6928C34.6124 21.6937 33.348 21.6931 32.0836 21.693C32.0099 21.693 31.9363 21.6942 31.8626 21.6928C31.4571 21.6852 31.4932 21.7791 31.3109 21.2714C31.1433 20.8047 30.9669 20.3411 30.7967 19.8754C30.6303 19.4212 30.4682 18.9656 30.3017 18.5115C30.0296 17.7702 29.7544 17.0299 29.4823 16.2886C29.3556 15.9435 29.2325 15.5972 29.1044 15.2373Z" fill="#233650"/>
<path d="M65.4863 3.90725C65.3088 4.25029 65.1364 4.58062 64.9685 4.91328C64.6076 5.62867 64.2496 6.34564 63.889 7.06122C63.3597 8.11092 62.8298 9.16015 62.2994 10.2092C62.1392 10.526 61.9749 10.8409 61.8151 11.1579C61.7554 11.276 61.6471 11.3004 61.5499 11.2558C61.2077 11.0983 60.8383 10.9701 60.5422 10.7473C59.8888 10.2559 59.5113 9.57077 59.2926 8.78345C59.1478 8.26311 59.1287 7.73301 59.083 7.20375C59.0756 7.11893 59.1114 7.02185 59.1515 6.94281C59.543 6.17332 59.9419 5.40761 60.3341 4.63845C60.6398 4.03859 60.9378 3.43476 61.2413 2.8338C61.6468 2.03156 62.0567 1.23175 62.4585 0.427669C62.5487 0.246943 62.6673 0.177296 62.8762 0.178733C64.2691 0.188198 65.6624 0.182489 67.0553 0.185841C67.1352 0.186062 67.2148 0.222487 67.2947 0.242044C67.2689 0.317841 67.2516 0.397799 67.2163 0.468735C67.0008 0.900571 66.7805 1.33001 66.5633 1.76093C66.2959 2.29106 66.0292 2.82168 65.7629 3.3524C65.6723 3.53302 65.5832 3.71452 65.4863 3.90725Z" fill="#233650"/>
<path d="M9.49754 21.7266C6.42331 21.7272 3.36717 21.7278 0.310983 21.7282C0.00617451 21.7282 6.09256e-05 21.7218 2.40953e-05 21.421C-1.27351e-05 14.4434 -1.24743e-05 7.4657 6.11864e-05 0.488037C9.80167e-05 0.165919 0.017776 0.148572 0.347481 0.148609C3.42823 0.149051 6.50894 0.145809 9.58965 0.15568C9.92334 0.156748 10.2558 0.249193 10.5906 0.272101C11.0517 0.303628 11.4885 0.431098 11.9268 0.560114C12.3119 0.673478 12.7024 0.770084 13.0822 0.898696C13.2994 0.972283 13.5052 1.08557 13.707 1.19746C14.2673 1.50813 14.8453 1.79423 15.3743 2.15203C15.9789 2.56092 16.4777 3.09762 16.9686 3.64072C17.466 4.19096 17.8596 4.80805 18.2208 5.44614C18.4211 5.80004 18.5652 6.18761 18.7147 6.56785C18.8546 6.92352 18.991 7.28357 19.087 7.65257C19.1928 8.05914 19.2725 8.4754 19.3247 8.89232C19.4043 9.52926 19.469 10.1693 19.5041 10.81C19.5255 11.1997 19.4945 11.5945 19.4599 11.9845C19.419 12.4473 19.3716 12.9118 19.2847 13.3675C19.2062 13.7795 19.084 14.1849 18.9562 14.5853C18.8508 14.9157 18.725 15.242 18.5793 15.5568C18.3877 15.9706 18.1851 16.3813 17.9564 16.7753C17.5323 17.5058 16.9853 18.1458 16.386 18.7349C15.7692 19.3412 15.0935 19.879 14.3185 20.2773C13.8644 20.5107 13.4107 20.7455 12.9483 20.9615C12.7629 21.0481 12.5543 21.0849 12.3567 21.1459C12.2059 21.1924 12.057 21.2463 11.905 21.2884C11.5878 21.3761 11.271 21.467 10.9501 21.539C10.7789 21.5774 10.5989 21.5753 10.4238 21.5983C10.1207 21.6382 9.81826 21.6835 9.49754 21.7266ZM9.25877 21.6199C9.56748 21.583 9.87737 21.5537 10.1846 21.5073C10.6061 21.4436 11.0306 21.388 11.4445 21.2896C11.8454 21.1943 12.2397 21.0638 12.6272 20.922C13.0545 20.7657 13.4793 20.5966 13.8892 20.3998C14.2063 20.2474 14.4949 20.0367 14.8031 19.8642C15.3918 19.5345 15.8904 19.0887 16.3622 18.6188C16.8996 18.0837 17.4034 17.5121 17.7812 16.848C18.0339 16.4039 18.2692 15.9488 18.4879 15.487C18.617 15.2144 18.7091 14.9225 18.7988 14.6334C18.9358 14.1917 19.0668 13.7476 19.179 13.2992C19.2259 13.1116 19.1867 12.901 19.2412 12.717C19.3636 12.3033 19.3767 11.8837 19.3701 11.4602C19.3611 10.8779 19.3566 10.2952 19.3309 9.7136C19.3197 9.45918 19.2655 9.20608 19.2224 8.95383C19.1579 8.57591 19.0916 8.1981 19.0148 7.82255C18.9772 7.63825 18.9243 7.45553 18.8609 7.27834C18.7315 6.91681 18.5956 6.55742 18.4522 6.2012C18.357 5.96464 18.2667 5.72137 18.1347 5.50525C17.8393 5.02167 17.5587 4.52045 17.1993 4.08669C16.7359 3.52739 16.2014 3.0269 15.6969 2.50166C15.6804 2.48439 15.6571 2.47323 15.6364 2.46019C15.1975 2.18419 14.7634 1.90015 14.3176 1.63574C14.0776 1.4934 13.821 1.37716 13.5656 1.26295C13.2952 1.14196 13.0199 1.03073 12.7422 0.927571C12.4931 0.83509 12.241 0.747949 11.9845 0.679408C11.7155 0.607478 11.4365 0.572784 11.1677 0.500155C10.5869 0.343221 9.9903 0.268639 9.39655 0.264809C6.54294 0.246541 3.68914 0.255969 0.835373 0.253833C0.664149 0.253723 0.492813 0.240206 0.3217 0.22982C0.189479 0.22179 0.102523 0.248419 0.133203 0.413051C0.148782 0.496472 0.14381 0.584201 0.14381 0.669979C0.144215 7.51284 0.144215 14.3557 0.143736 21.1985C0.143736 21.2904 0.146609 21.3838 0.131656 21.4738C0.105764 21.6294 0.191542 21.6538 0.313377 21.6477C0.490715 21.639 0.668053 21.6231 0.845391 21.623C3.63776 21.6208 6.43012 21.6206 9.25877 21.6199Z" fill="#233650"/>
<path d="M78.7042 21.7285C76.4881 21.7285 74.2908 21.7286 72.0932 21.7285C71.7764 21.7285 71.7473 21.7001 71.7473 21.3817C71.747 14.4086 71.747 7.43555 71.7473 0.462455C71.7473 0.17503 71.775 0.147444 72.0641 0.147481C75.4341 0.147886 78.804 0.145419 82.174 0.154553C82.49 0.1554 82.806 0.226262 83.1213 0.27101C83.5143 0.326808 83.9128 0.361834 84.2966 0.456562C84.6785 0.550847 85.0512 0.691724 85.4158 0.84236C85.7414 0.976975 86.0626 1.13199 86.3631 1.31475C86.9903 1.69561 87.5682 2.13713 87.9671 2.77367C88.2135 3.16698 88.4274 3.56921 88.5667 4.01924C88.7118 4.48713 88.7508 4.96821 88.8105 5.44446C88.8447 5.71502 88.7434 6.00064 88.7195 6.28088C88.6772 6.77713 88.5088 7.236 88.2915 7.67351C87.9258 8.40905 87.4234 9.03664 86.7134 9.47098C86.4231 9.64865 86.12 9.81085 85.8081 9.94664C85.5252 10.0699 85.2221 10.1473 84.9286 10.2466C84.909 10.2533 84.8943 10.2742 84.8497 10.3118C84.9308 10.337 84.9849 10.3552 85.0402 10.3709C85.4744 10.4946 85.9256 10.5778 86.3381 10.7528C86.738 10.9226 87.1192 11.1583 87.4691 11.4179C87.7612 11.6345 88.0282 11.9034 88.2484 12.1931C88.5276 12.56 88.7862 12.9534 88.9828 13.3689C89.1711 13.7658 89.2793 14.2026 89.4001 14.6283C89.4476 14.7958 89.4454 14.9807 89.4458 15.1577C89.4469 15.6525 89.4558 16.1486 89.4252 16.6418C89.406 16.949 89.3637 17.2684 89.2558 17.5535C89.0554 18.0817 88.8436 18.607 88.4934 19.0679C87.9523 19.7801 87.2776 20.3165 86.4913 20.7311C86.0036 20.9884 85.4961 21.1842 84.9643 21.3234C84.6873 21.3957 84.4177 21.5025 84.1378 21.5565C83.7481 21.6316 83.3522 21.714 82.9581 21.7195C81.5464 21.7393 80.1344 21.728 78.7042 21.7285ZM86.9505 9.1865C87.0353 9.11641 87.1229 9.04927 87.2043 8.97564C87.6323 8.58937 87.9446 8.11735 88.2043 7.60847C88.2672 7.48446 88.3103 7.34866 88.3505 7.21471C88.4414 6.91252 88.5681 6.61261 88.6005 6.30345C88.6451 5.87604 88.7512 5.44192 88.6164 5.00828C88.5972 4.94655 88.623 4.87204 88.6105 4.80689C88.5486 4.49026 88.5107 4.16457 88.4068 3.86186C88.307 3.57127 88.1652 3.28499 87.9899 3.03281C87.7442 2.67905 87.4897 2.31325 87.1671 2.03555C86.7782 1.70014 86.3204 1.44085 85.8795 1.1696C85.653 1.03012 85.4048 0.918672 85.1543 0.826817C84.9278 0.743801 84.6862 0.700858 84.4498 0.647012C84.0719 0.560939 83.6947 0.468089 83.3132 0.40231C83.0852 0.363049 82.8487 0.374688 82.6171 0.355204C82.1177 0.313255 81.619 0.229024 81.1196 0.226961C78.1488 0.214697 75.1777 0.220847 72.207 0.220921C71.8899 0.220921 71.8895 0.221142 71.8895 0.537147C71.8895 7.46711 71.8895 14.3971 71.8895 21.327C71.8895 21.6549 71.8895 21.655 72.2136 21.655C75.479 21.655 78.7447 21.6647 82.0101 21.6467C82.6491 21.6432 83.2896 21.5501 83.9249 21.4644C84.2542 21.4199 84.5754 21.3076 84.8969 21.2141C85.2589 21.1086 85.6302 21.0188 85.9738 20.8686C86.3285 20.7137 86.6493 20.4841 86.9944 20.3057C87.3653 20.1141 87.6816 19.8529 87.9486 19.5437C88.2348 19.2129 88.5298 18.8731 88.7298 18.4897C88.9468 18.0731 89.0668 17.6044 89.2145 17.1536C89.448 16.4412 89.3622 15.7055 89.3173 14.9812C89.2944 14.6107 89.174 14.239 89.0513 13.8839C88.9188 13.5001 88.7692 13.1128 88.5608 12.767C88.2234 12.2077 87.7645 11.7473 87.236 11.3564C86.8389 11.0626 86.3988 10.8564 85.9355 10.7067C85.548 10.5816 85.144 10.5072 84.7503 10.4009C84.6862 10.3837 84.6361 10.3168 84.5794 10.2729C84.6417 10.2366 84.7002 10.1794 84.7669 10.1675C85.158 10.0974 85.5341 9.97964 85.8876 9.80131C86.2452 9.6208 86.6216 9.47013 86.9505 9.1865Z" fill="#233650"/>
<path d="M44.4835 0.143555C44.601 0.301446 44.4735 0.437976 44.4278 0.567951C44.1977 1.22475 43.9513 1.87587 43.7071 2.52766C43.4846 3.12151 43.2537 3.71223 43.0338 4.30701C42.8644 4.76481 42.7116 5.22865 42.5418 5.6863C42.3679 6.15534 42.1794 6.61888 42.0033 7.08718C41.8873 7.39578 41.786 7.70984 41.6718 8.0191C41.4987 8.48843 41.3183 8.95518 41.1437 9.42396C41.0244 9.74423 40.9102 10.0665 40.7916 10.3871C40.6159 10.8619 40.4376 11.3356 40.262 11.8104C40.0948 12.2628 39.9305 12.7165 39.7633 13.1689C39.5854 13.6493 39.4038 14.1283 39.2267 14.6089C39.0576 15.0671 38.8948 15.5274 38.725 15.9853C38.5512 16.4543 38.3685 16.92 38.1976 17.39C38.1188 17.6068 38.0566 17.8297 37.9914 18.0512C37.9623 18.1507 37.9129 18.1925 37.8198 18.1278C37.1196 17.6415 36.4283 17.1413 35.9941 16.3814C35.7587 15.9693 35.5072 15.5553 35.3532 15.1109C35.2007 14.671 35.0943 14.1988 35.1551 13.7202C35.1761 13.5535 35.2494 13.393 35.3028 13.231C35.4781 12.6971 35.6571 12.1644 35.8316 11.6302C35.9569 11.2472 36.0747 10.8618 36.2011 10.4791C36.323 10.1085 36.4537 9.74074 36.5767 9.37041C36.6938 9.0172 36.8051 8.66194 36.9211 8.30833C37.0482 7.92043 37.1789 7.53364 37.3067 7.14582C37.4209 6.79792 37.5328 6.4491 37.6466 6.10098C37.7774 5.70067 37.9092 5.3008 38.0404 4.90056C38.1564 4.54633 38.2709 4.19169 38.3869 3.83753C38.5184 3.437 38.6525 3.03739 38.7825 2.63634C38.9062 2.25298 39.0215 1.86659 39.1493 1.48451C39.2966 1.04487 39.4535 0.608464 39.6185 0.16138C39.6918 0.150663 39.7533 0.147974 39.8145 0.147901C41.3709 0.14628 42.927 0.144954 44.4835 0.143555ZM36.6452 9.55994C36.6176 9.61905 36.5811 9.67573 36.5638 9.73775C36.5023 9.95605 36.4548 10.1784 36.3885 10.3951C36.3027 10.6746 36.2051 10.9504 36.1112 11.2272C36.0497 11.4094 35.9871 11.5912 35.9219 11.7722C35.8431 11.9918 35.7528 12.2076 35.6832 12.4301C35.6158 12.6469 35.5694 12.8702 35.5116 13.0902C35.5057 13.1125 35.4814 13.1294 35.4725 13.1516C35.4401 13.2344 35.4088 13.3178 35.3805 13.4022C35.3613 13.459 35.3481 13.5178 35.3315 13.5756C35.3006 13.6836 35.2405 13.7925 35.2438 13.8994C35.2541 14.2384 35.439 14.5531 35.3948 14.9024C35.3945 14.908 35.3978 14.9143 35.4004 14.9199C35.4858 15.1282 35.558 15.3431 35.6593 15.5433C35.8287 15.8775 35.9823 16.2284 36.2058 16.5241C36.464 16.8655 36.7778 17.1695 37.0931 17.462C37.3251 17.6772 37.5984 17.8478 37.8404 18.0285C37.9166 17.8364 37.9851 17.6688 38.0496 17.4996C38.1365 17.2716 38.2216 17.0428 38.3048 16.8134C38.3704 16.6335 38.4333 16.4526 38.4952 16.2714C38.5604 16.0807 38.6164 15.8866 38.6882 15.6986C38.7619 15.5054 38.855 15.3197 38.9306 15.1271C39.0248 14.8863 39.111 14.6423 39.199 14.399C39.2598 14.2302 39.321 14.0612 39.3766 13.8906C39.4414 13.693 39.4955 13.4917 39.5637 13.2953C39.6458 13.0582 39.7379 12.8244 39.8263 12.5894C39.841 12.5503 39.8601 12.5128 39.8752 12.4739C39.908 12.3922 39.9419 12.3109 39.9699 12.2276C39.985 12.1822 39.9806 12.1293 39.9997 12.0864C40.0815 11.9024 40.1817 11.7254 40.2513 11.537C40.3231 11.3427 40.3673 11.1381 40.4248 10.9383C40.4295 10.9214 40.4443 10.9075 40.4513 10.8909C40.536 10.6896 40.6262 10.4903 40.7025 10.2859C40.7717 10.1012 40.8236 9.91023 40.8862 9.72309C40.9338 9.58225 40.9838 9.44241 41.0365 9.30341C41.1223 9.07525 41.2111 8.84811 41.2984 8.6205C41.3131 8.58132 41.326 8.54117 41.3422 8.50246C41.4232 8.30767 41.5127 8.11589 41.5849 7.91789C41.6527 7.73249 41.7009 7.54005 41.7617 7.35188C41.8015 7.22795 41.8427 7.10401 41.8928 6.98384C41.9694 6.79854 42.0578 6.61807 42.1341 6.43252C42.2026 6.26605 42.2663 6.09726 42.3219 5.92629C42.3867 5.72873 42.4331 5.52521 42.5005 5.32868C42.5852 5.08177 42.6825 4.83928 42.7753 4.59517C42.786 4.56736 42.8036 4.54239 42.8151 4.51477C42.85 4.42847 42.885 4.34218 42.9167 4.25467C42.9329 4.20985 42.9377 4.16072 42.9554 4.11663C43.039 3.90773 43.1311 3.70196 43.2091 3.49099C43.2751 3.312 43.32 3.12516 43.3852 2.94583C43.4706 2.71155 43.5701 2.48247 43.6574 2.24889C43.7185 2.08573 43.766 1.91749 43.826 1.75389C43.9152 1.51169 44.0102 1.27182 44.1015 1.03054C44.1608 0.873753 44.2036 0.708458 44.2802 0.560842C44.38 0.368846 44.3295 0.251173 44.11 0.250768C42.7171 0.248042 41.3238 0.247158 39.9309 0.254929C39.848 0.255408 39.7276 0.315184 39.6904 0.383209C39.606 0.538523 39.5629 0.716267 39.5022 0.884508C39.486 0.929478 39.4639 0.972385 39.4476 1.01728C39.4167 1.10103 39.3865 1.18497 39.3593 1.2699C39.3412 1.32702 39.3313 1.3868 39.3128 1.44392C39.2804 1.54561 39.2432 1.6459 39.2101 1.74741C39.195 1.7933 39.1884 1.84217 39.1714 1.88718C39.0908 2.10054 38.9972 2.3097 38.928 2.52666C38.8576 2.7486 38.8105 2.97802 38.7512 3.20371C38.7453 3.22648 38.7243 3.24497 38.7158 3.26751C38.6363 3.47987 38.5486 3.68991 38.4812 3.90618C38.4116 4.12794 38.3626 4.35599 38.3037 4.58095C38.2993 4.59785 38.2812 4.61086 38.275 4.62769C38.1939 4.84543 38.1059 5.06096 38.0363 5.28227C37.9685 5.49699 37.9199 5.71776 37.8625 5.93568C37.8595 5.94691 37.8474 5.95557 37.8433 5.96677C37.8069 6.06577 37.7708 6.16484 37.7361 6.26439C37.7185 6.31511 37.7052 6.36741 37.6872 6.41797C37.6555 6.50648 37.6194 6.59332 37.5903 6.6826C37.5734 6.73387 37.5715 6.78992 37.5549 6.84134C37.5192 6.95308 37.4783 7.0631 37.4404 7.17403C37.4264 7.21384 37.4157 7.25465 37.4014 7.29435C37.3664 7.39387 37.3295 7.49287 37.2942 7.59227C37.2739 7.64837 37.2555 7.70497 37.236 7.76121C37.2065 7.84522 37.1745 7.92839 37.1483 8.01332C37.1303 8.07074 37.1273 8.13309 37.106 8.18885C37.0264 8.39908 36.931 8.60408 36.8618 8.81755C36.7848 9.05425 36.7299 9.29807 36.6452 9.55994Z" fill="#FEF9E6"/>
<path d="M44.4812 0.127191C42.927 0.144685 41.3709 0.146011 39.8144 0.147632C39.7533 0.147705 39.6918 0.150394 39.6141 0.149879C39.596 0.0488898 39.6443 0.000973165 39.7434 0.00362495C39.7739 0.00443522 39.8045 0.00277804 39.8351 0.00277804C41.305 0.00274121 42.7745 0.00207793 44.244 0.00439824C44.3331 0.00450874 44.4517 -0.0360783 44.4812 0.127191Z" fill="#FEF9E6"/>
<path d="M9.24154 21.6199C6.43105 21.6206 3.63868 21.6207 0.846317 21.6229C0.668979 21.6231 0.491605 21.6389 0.314303 21.6477C0.192469 21.6537 0.106691 21.6294 0.132546 21.4737C0.147499 21.3837 0.144662 21.2903 0.144662 21.1984C0.145141 14.3556 0.145141 7.5128 0.144736 0.669941C0.144736 0.584163 0.149672 0.496433 0.134129 0.413013C0.103413 0.248381 0.190405 0.221752 0.322626 0.229781C0.49374 0.240167 0.665076 0.253685 0.8363 0.253795C3.69003 0.255931 6.54383 0.246503 9.39748 0.264771C9.99122 0.268601 10.5878 0.343182 11.1686 0.500117C11.4374 0.572746 11.7164 0.607477 11.9854 0.679369C12.2419 0.747911 12.4941 0.835052 12.7431 0.927533C13.0208 1.03069 13.2961 1.14192 13.5666 1.26291C13.8219 1.37712 14.0785 1.49336 14.3185 1.63571C14.7643 1.90011 15.1984 2.18415 15.6373 2.46015C15.658 2.47319 15.6813 2.48435 15.6979 2.50166C16.2024 3.02686 16.7368 3.52735 17.2002 4.08666C17.5596 4.52041 17.8402 5.02163 18.1356 5.50521C18.2676 5.72133 18.3579 5.9646 18.4531 6.20116C18.5965 6.55738 18.7324 6.91677 18.8618 7.2783C18.9252 7.45549 18.9781 7.63821 19.0157 7.82251C19.0924 8.19806 19.1588 8.57587 19.2233 8.95379C19.2664 9.20604 19.3206 9.45914 19.3318 9.71356C19.3575 10.2952 19.362 10.8778 19.371 11.4601C19.3776 11.8836 19.3645 12.3033 19.242 12.717C19.1876 12.901 19.2268 13.1116 19.1799 13.2991C19.0678 13.7476 18.9367 14.1917 18.7997 14.6333C18.71 14.9224 18.6179 15.2143 18.4888 15.4869C18.2702 15.9487 18.0348 16.4039 17.7822 16.848C17.4043 17.5121 16.9005 18.0836 16.3632 18.6188C15.8913 19.0887 15.3928 19.5344 14.804 19.8641C14.4958 20.0367 14.2072 20.2474 13.8901 20.3997C13.4802 20.5966 13.0555 20.7656 12.6281 20.922C12.2406 21.0638 11.8463 21.1943 11.4454 21.2896C11.0316 21.388 10.607 21.4435 10.1856 21.5072C9.87826 21.5537 9.56841 21.5829 9.24154 21.6199ZM14.393 9.16195C14.239 8.66518 14.1209 8.1535 13.9218 7.67552C13.6871 7.11205 13.3715 6.58917 12.9532 6.12835C12.5249 5.65659 12.0626 5.22884 11.5076 4.92061C10.5865 4.409 9.59854 4.14275 8.53443 4.15789C7.39339 4.17413 6.25191 4.16127 5.11065 4.1615C4.83508 4.16157 4.82598 4.17173 4.82598 4.45621C4.82606 5.73861 4.82613 7.02104 4.82609 8.30344C4.82606 11.3285 4.82595 14.3535 4.82606 17.3785C4.82609 17.6479 4.84915 17.6774 5.07474 17.6794C6.38704 17.6916 7.69945 17.7176 9.01161 17.7084C9.85119 17.7025 10.6482 17.4679 11.3901 17.0825C12.3917 16.5622 13.1424 15.7777 13.6793 14.7879C14.2822 13.6764 14.553 12.478 14.5769 11.2222C14.5898 10.5411 14.5365 9.86239 14.393 9.16195Z" fill="#233650"/>
<path d="M86.9411 9.19574C86.6218 9.47053 86.2454 9.6212 85.8878 9.80174C85.5342 9.98004 85.1582 10.0978 84.767 10.1679C84.7004 10.1798 84.6418 10.237 84.5795 10.2733C84.6363 10.3172 84.6864 10.3841 84.7504 10.4013C85.1442 10.5077 85.5482 10.582 85.9356 10.7071C86.399 10.8569 86.8391 11.063 87.2361 11.3568C87.7646 11.7477 88.2235 12.2081 88.5609 12.7674C88.7694 13.1132 88.9189 13.5006 89.0515 13.8843C89.1741 14.2394 89.2946 14.6111 89.3174 14.9816C89.3627 15.7059 89.4482 16.4416 89.2147 17.154C89.067 17.6048 88.9469 18.0735 88.73 18.4901C88.53 18.8735 88.235 19.2133 87.9488 19.5441C87.6818 19.8533 87.3654 20.1145 86.9945 20.3061C86.6494 20.4845 86.3286 20.7141 85.9739 20.869C85.6303 21.0192 85.2591 21.109 84.897 21.2145C84.5755 21.3081 84.2543 21.4203 83.9251 21.4648C83.2898 21.5505 82.6493 21.6436 82.0103 21.6471C78.7449 21.6651 75.4791 21.6554 72.2138 21.6554C71.8897 21.6554 71.8896 21.6553 71.8896 21.3274C71.8896 14.3975 71.8896 7.46751 71.8896 0.537545C71.8896 0.221541 71.89 0.22132 72.2071 0.22132C75.1779 0.221283 78.149 0.215095 81.1197 0.22736C81.6191 0.229422 82.1178 0.313653 82.6172 0.355603C82.8489 0.375086 83.0853 0.363448 83.3133 0.402709C83.6949 0.468488 84.072 0.561337 84.4499 0.647447C84.6864 0.701256 84.928 0.7442 85.1545 0.827253C85.4049 0.919071 85.6532 1.03052 85.8797 1.17C86.3205 1.44125 86.7783 1.70054 87.1673 2.03595C87.4899 2.31369 87.7444 2.67945 87.9904 3.03321C88.1653 3.28538 88.3071 3.57167 88.407 3.86226C88.5108 4.16497 88.5488 4.49066 88.6106 4.80729C88.6232 4.87244 88.5974 4.94699 88.6165 5.00871C88.7513 5.44235 88.6453 5.87644 88.6007 6.30385C88.5683 6.61301 88.4416 6.91292 88.3506 7.21511C88.3105 7.34906 88.2674 7.48486 88.2044 7.60886C87.9447 8.11778 87.6324 8.58977 87.2045 8.97608C87.1231 9.04967 87.0354 9.11681 86.9411 9.19574ZM76.5689 14.7503C76.5689 15.7014 76.5686 16.6524 76.5686 17.6036C76.5686 17.8459 76.5859 17.8627 76.8326 17.8627C78.1398 17.8628 79.4469 17.8553 80.7536 17.8656C81.4169 17.8709 82.0688 17.8009 82.6857 17.5625C83.0172 17.4345 83.3583 17.2672 83.6186 17.0329C84.2536 16.4615 84.5037 15.7211 84.4134 14.8647C84.3129 13.9057 83.7877 13.2564 82.9343 12.8742C82.3893 12.6301 81.8014 12.5238 81.1985 12.5243C79.7382 12.5255 78.2779 12.5235 76.8176 12.5235C76.591 12.5235 76.5689 12.5465 76.5686 12.7806C76.5682 13.4249 76.5689 14.0692 76.5689 14.7503ZM82.8692 8.41862C83.2205 8.1618 83.4835 7.82476 83.6238 7.42173C83.8835 6.67569 83.8761 5.93047 83.4916 5.2153C83.2857 4.83241 82.9936 4.52266 82.6117 4.32754C82.1318 4.0825 81.6107 3.97595 81.067 3.97765C79.6557 3.98203 78.2444 3.97872 76.833 3.97875C76.5885 3.97875 76.5686 3.99783 76.5686 4.23907C76.5682 5.73026 76.5682 7.22144 76.5689 8.71263C76.5689 8.99111 76.5962 9.0174 76.875 9.01748C78.0164 9.01781 79.1581 9.02366 80.2991 9.01424C80.6906 9.01099 81.0829 8.98278 81.4722 8.94116C81.9701 8.88795 82.4519 8.77237 82.8692 8.41862Z" fill="#233650"/>
<path d="M36.656 9.5486C36.7304 9.29731 36.7853 9.05349 36.8622 8.81678C36.9315 8.60331 37.0269 8.39831 37.1064 8.18809C37.1278 8.13232 37.1307 8.06993 37.1488 8.01255C37.1749 7.92762 37.207 7.84446 37.2364 7.76045C37.2559 7.70421 37.2744 7.6476 37.2946 7.59151C37.33 7.4921 37.3668 7.3931 37.4018 7.29359C37.4162 7.25388 37.4268 7.21307 37.4408 7.17322C37.4788 7.06233 37.5197 6.95228 37.5554 6.84057C37.572 6.78916 37.5738 6.7331 37.5907 6.68183C37.6198 6.59256 37.6559 6.50571 37.6876 6.41721C37.7056 6.36664 37.7189 6.31434 37.7366 6.26363C37.7712 6.16407 37.8073 6.065 37.8438 5.966C37.8478 5.9548 37.86 5.94615 37.8629 5.93491C37.9204 5.71699 37.969 5.49619 38.0368 5.28151C38.1064 5.06019 38.1944 4.84466 38.2754 4.62692C38.2817 4.61009 38.2997 4.59709 38.3041 4.58018C38.3631 4.35522 38.4124 4.12717 38.4817 3.90541C38.5491 3.68915 38.6367 3.4791 38.7163 3.26674C38.7247 3.2442 38.7457 3.22571 38.752 3.20295C38.8109 2.97725 38.8581 2.74784 38.9284 2.5259C38.9977 2.30893 39.0912 2.09977 39.1719 1.88641C39.1888 1.8414 39.1954 1.79253 39.2105 1.74664C39.2437 1.64514 39.2809 1.54485 39.3133 1.44312C39.3317 1.38603 39.3416 1.32622 39.3597 1.26913C39.387 1.1842 39.4172 1.10027 39.4481 1.01652C39.4647 0.971619 39.4864 0.928712 39.5026 0.883742C39.5637 0.715501 39.6065 0.537757 39.6908 0.382444C39.728 0.314381 39.8484 0.254642 39.9313 0.254163C41.3242 0.246392 42.7175 0.247276 44.1104 0.250002C44.33 0.250407 44.3804 0.36808 44.2806 0.560076C44.204 0.707692 44.1613 0.87295 44.102 1.02977C44.0106 1.27105 43.9156 1.51093 43.8265 1.75312C43.7664 1.91672 43.7189 2.08496 43.6582 2.24812C43.5705 2.48166 43.4711 2.71078 43.3856 2.94506C43.3204 3.12439 43.2755 3.31123 43.2096 3.49019C43.1315 3.70119 43.0394 3.90692 42.9558 4.11586C42.9381 4.15995 42.9333 4.20908 42.9171 4.2539C42.8855 4.34138 42.8505 4.42771 42.8155 4.514C42.8041 4.54162 42.7864 4.56659 42.7757 4.5944C42.6829 4.83851 42.5857 5.081 42.501 5.32791C42.4339 5.52444 42.3872 5.72793 42.3223 5.92552C42.2667 6.09649 42.203 6.26528 42.1345 6.43172C42.0586 6.61731 41.9699 6.79778 41.8933 6.98307C41.8435 7.10325 41.8019 7.22718 41.7621 7.35112C41.7014 7.53924 41.6531 7.73172 41.5854 7.91712C41.5132 8.11509 41.424 8.3069 41.3426 8.5017C41.3264 8.5404 41.3139 8.58051 41.2988 8.61974C41.2115 8.84735 41.1228 9.07448 41.037 9.30265C40.9847 9.44164 40.9342 9.58149 40.887 9.72233C40.8241 9.90946 40.7721 10.1004 40.7029 10.2851C40.6267 10.4895 40.5364 10.6888 40.4517 10.8901C40.4447 10.9068 40.43 10.9206 40.4252 10.9375C40.3677 11.1373 40.3235 11.3419 40.2517 11.5363C40.1821 11.7246 40.0823 11.9016 40.0002 12.0856C39.981 12.1285 39.9854 12.1815 39.9703 12.2268C39.9424 12.3101 39.9085 12.3914 39.8761 12.4731C39.8606 12.512 39.8414 12.5495 39.8267 12.5886C39.7383 12.8236 39.6462 13.0574 39.5641 13.2945C39.496 13.4909 39.4418 13.6922 39.377 13.8898C39.3214 14.0604 39.2603 14.2294 39.1995 14.3982C39.1115 14.6415 39.0256 14.8856 38.931 15.1263C38.8555 15.3189 38.7623 15.5046 38.6886 15.6978C38.6168 15.8858 38.5608 16.0799 38.4957 16.2706C38.4338 16.4519 38.3708 16.6327 38.3052 16.8126C38.222 17.042 38.1369 17.2708 38.05 17.4988C37.9856 17.668 37.9171 17.8356 37.8408 18.0277C37.5988 17.847 37.3256 17.6765 37.0935 17.4613C36.7783 17.1688 36.4645 16.8648 36.2063 16.5233C35.9827 16.2276 35.8291 15.8767 35.6601 15.5426C35.5584 15.3424 35.4862 15.1275 35.4008 14.9192C35.3986 14.9135 35.3949 14.9072 35.3956 14.9017C35.4395 14.5523 35.2546 14.2376 35.2443 13.8987C35.241 13.7917 35.3014 13.6829 35.3319 13.5748C35.3485 13.517 35.3618 13.4582 35.3809 13.4014C35.4093 13.317 35.4406 13.2336 35.4734 13.1508C35.4818 13.1286 35.5061 13.1117 35.512 13.0894C35.5699 12.8695 35.6163 12.6461 35.684 12.4293C35.7533 12.2069 35.8435 11.991 35.9223 11.7715C35.9875 11.5905 36.0501 11.4086 36.1116 11.2265C36.2055 10.9496 36.3035 10.6738 36.389 10.3943C36.4553 10.1776 36.5028 9.95528 36.5643 9.73699C36.5816 9.67496 36.618 9.61828 36.656 9.5486Z" fill="#399CA7"/>
<path d="M44.3931 0.279012C44.3914 0.276617 44.3947 0.281407 44.3931 0.279012V0.279012Z" fill="#FEF9E6"/>
</svg>
